<svg id="visual" viewBox="0 0 900 600" width="900" height="600" xmlns="http://www.w3.org/2000/svg" xmlns:xlink="http://www.w3.org/1999/xlink" version="1.1"><rect x="0" y="0" width="900" height="600" fill="#e6e6e6"></rect><path d="M0 80L12.5 72.3C25 64.7 50 49.3 75 46.2C100 43 125 52 150 52C175 52 200 43 225 43.2C250 43.3 275 52.7 300 55C325 57.3 350 52.7 375 52C400 51.3 425 54.7 450 58.7C475 62.7 500 67.3 525 71.8C550 76.3 575 80.7 600 74.8C625 69 650 53 675 47.2C700 41.3 725 45.7 750 49.2C775 52.7 800 55.3 825 59.5C850 63.7 875 69.3 887.5 72.2L900 75L900 0L887.5 0C875 0 850 0 825 0C800 0 775 0 750 0C725 0 700 0 675 0C650 0 625 0 600 0C575 0 550 0 525 0C500 0 475 0 450 0C425 0 400 0 375 0C350 0 325 0 300 0C275 0 250 0 225 0C200 0 175 0 150 0C125 0 100 0 75 0C50 0 25 0 12.5 0L0 0Z" fill="#54d1f7" stroke-linecap="round" stroke-linejoin="miter"></path></svg>